# xmcd
#
# Track frame offsets:
#	150
#	11151
#	21315
#	33555
#	45645
#	58119
#	70293
#	81399
#	91638
#	101880
#	109710
#	122256
#	132420
#	143937
#	154497
#	165699
#	175821
#	184668
#	193998
#	205980
#
# Disc length: 2932 seconds
#
# Revision: 1
# Processed by: cddbd v1.5.2PL0 Copyright (c) Steve Scherf et al.
# Submitted via: audiograbber 1.82.02
#
DISCID=230b7214
DTITLE=Compilation - Maxi 3CD Country CD 1
DYEAR=2004
DGENRE=Country
TTITLE0=Roger Miller - King of the Road
TTITLE1=Dolly Parton - Release me
TTITLE2=Lynn Anderson - Stand by your man
TTITLE3=Waylon Jennings - Don't think twice, it's alright
TTITLE4=Faron Joung - It's four in the morning
TTITLE5=Merle Haggard - Everybody's the Blues
TTITLE6=Conway Twitty - It' only make believe
TTITLE7=Johnny Tillotson - Send me the pillow you dream on
TTITLE8=Dave Duddley - Six days on the road
TTITLE9=Don Gibson - Blue blue day
TTITLE10=Freddy Fender - Wasted days and wasted nights
TTITLE11=Ferlin Husky - Gone
TTITLE12=Kenny Rogers - Me and Boby Mcgee
TTITLE13=Patsy Cline - I've loved and lost again
TTITLE14=Johnny Tillotson - Raining in my heart
TTITLE15=Mickey Gilley - Lonely wine
TTITLE16=Sandy Posey - Born a woman
TTITLE17=Willie Nelson - One step beyond
TTITLE18=Holly Dunn - There goes my heart again
TTITLE19=Tex Ritter - Conversation with a gun
EXTD=
EXTT0=
EXTT1=
EXTT2=
EXTT3=
EXTT4=
EXTT5=
EXTT6=
EXTT7=
EXTT8=
EXTT9=
EXTT10=
EXTT11=
EXTT12=
EXTT13=
EXTT14=
EXTT15=
EXTT16=
EXTT17=
EXTT18=
EXTT19=
PLAYORDER=
